<?xml version="1.0" encoding="UTF-8"?>
<svg width="10px" height="10px" viewBox="0 0 10 10" version="1.1" xmlns="http://www.w3.org/2000/svg" xmlns:xlink="http://www.w3.org/1999/xlink">
    <title>icons/social/linkedin/icon-linkedin-pink</title>
    <g id="icons/social/linkedin/icon-linkedin-pink" stroke="none" stroke-width="1" fill="none" fill-rule="evenodd">
        <path d="M8.93747869,9.62497705 C9.12367627,9.62497705 9.2848087,9.55694325 9.42087598,9.42087598 C9.55694325,9.2848087 9.62497705,9.12367627 9.62497705,8.93747869 L9.62497705,8.93747869 L9.62497705,0.687498361 C9.62497705,0.501300779 9.55694325,0.340168351 9.42087598,0.204101076 C9.2848087,0.0680338012 9.12367627,0 8.93747869,0 L8.93747869,0 L0.687498361,0 C0.501300779,0 0.340168351,0.0680338012 0.204101076,0.204101076 C0.0680338012,0.340168351 0,0.501300779 0,0.687498361 L0,0.687498361 L0,8.93747869 C0,9.12367627 0.0680338012,9.2848087 0.204101076,9.42087598 C0.340168351,9.55694325 0.501300779,9.62497705 0.687498361,9.62497705 L0.687498361,9.62497705 L8.93747869,9.62497705 Z M2.19140103,3.02928965 C1.9622348,3.02928965 1.76887588,2.94693319 1.61132428,2.78221993 C1.45377268,2.61750667 1.37499672,2.42414776 1.37499672,2.20214319 C1.37499672,1.98013862 1.45377268,1.7867797 1.61132428,1.62206645 C1.76887588,1.45735319 1.9622348,1.37499672 2.19140103,1.37499672 C2.42056725,1.37499672 2.61750667,1.45735319 2.78221993,1.62206645 C2.94693319,1.7867797 3.02928965,1.98013862 3.02928965,2.20214319 C3.02928965,2.42414776 2.94693319,2.61750667 2.78221993,2.78221993 C2.61750667,2.94693319 2.42056725,3.02928965 2.19140103,3.02928965 Z M5.22069068,8.24998033 L3.80272531,8.24998033 L3.80272531,3.65233504 L5.17772203,3.65233504 L5.17772203,4.27538043 L5.19920635,4.27538043 C5.29946664,4.07486019 5.45701824,3.91014693 5.67186148,3.78124098 C5.92967336,3.62368939 6.22329256,3.54491342 6.55271875,3.54491342 C7.21157146,3.54491342 7.67706492,3.75259533 7.9491998,4.16795881 C8.14972004,4.497385 8.24998033,5.02017043 8.24998033,5.73631445 L8.24998033,5.73631445 L8.24998033,8.24998033 L6.83201496,8.24998033 L6.83201496,6.01561066 C6.83201496,5.64321582 6.79620765,5.37108094 6.72459334,5.19920635 C6.62433306,4.92707148 6.40948982,4.7910042 6.08006363,4.7910042 C5.75063744,4.7910042 5.51430988,4.91274881 5.37108094,5.15623771 C5.27082066,5.34243529 5.22069068,5.61456984 5.22069068,5.97264201 L5.22069068,5.97264201 L5.22069068,8.24998033 Z M2.92186803,8.24998033 L1.48241834,8.24998033 L1.48241834,3.65233504 L2.92186803,3.65233504 L2.92186803,8.24998033 Z" id="linkedin" fill="#C33082" fill-rule="nonzero"></path>
    </g>
</svg>