<?xml version="1.0" encoding="UTF-8"?>
<svg width="10px" height="10px" viewBox="0 0 10 10" version="1.1" xmlns="http://www.w3.org/2000/svg" xmlns:xlink="http://www.w3.org/1999/xlink">
    <title>icons/social/medium/icon-medium-white</title>
    <g id="icons/social/medium/icon-medium-white" stroke="none" stroke-width="1" fill="none" fill-rule="evenodd">
        <path d="M10,10 L10,0 L0,0 L0,10 L10,10 Z M9,8 L5.70697674,8 L5.70697674,7.87447699 L6.37674419,7.27196653 C6.41395335,7.23849385 6.43255814,7.18828465 6.43255814,7.12133891 L6.43255814,7.12133891 L6.43255814,3.68200837 L4.5627907,7.9748954 L4.31162791,7.9748954 L2.10697674,3.68200837 L2.10697674,6.56903766 C2.08837195,6.6861926 2.12558154,6.79497908 2.21860465,6.89539749 L2.21860465,6.89539749 L3.11162791,7.84937238 L3.11162791,7.9748954 L0.6,7.9748954 L0.6,7.84937238 L1.49302326,6.89539749 C1.58604637,6.79497908 1.62325596,6.6861926 1.60465116,6.56903766 L1.60465116,6.56903766 L1.60465116,3.23012552 C1.62325596,3.12970711 1.58604637,3.04602523 1.49302326,2.9790795 L1.49302326,2.9790795 L0.711627907,2.12552301 L0.711627907,2 L3.13953488,2 L5.0372093,5.71548117 L6.68372093,2 L9,2 L9,2.12552301 L8.33023256,2.70292887 C8.2744186,2.75313808 8.24651163,2.81171535 8.24651163,2.87866109 L8.24651163,2.87866109 L8.24651163,7.12133891 C8.24651163,7.18828465 8.2744186,7.24686192 8.33023256,7.29707113 L8.33023256,7.29707113 L9,7.87447699 L9,8 Z" id="medium" fill="#FFFFFF" fill-rule="nonzero"></path>
    </g>
</svg>