<?xml version="1.0" standalone="no"?>
<!DOCTYPE svg PUBLIC "-//W3C//DTD SVG 20010904//EN"
 "http://www.w3.org/TR/2001/REC-SVG-20010904/DTD/svg10.dtd">
<svg version="1.0" xmlns="http://www.w3.org/2000/svg"
 width="505.000000pt" height="505.000000pt" viewBox="0 0 505.000000 505.000000"
 preserveAspectRatio="xMidYMid meet">
<metadata>
Created by potrace 1.11, written by Peter Selinger 2001-2013
</metadata>
<g transform="translate(0.000000,505.000000) scale(0.100000,-0.100000)"
fill="#000000" stroke="none">
<path d="M2189 4816 c-99 -26 -192 -105 -240 -204 -22 -44 -24 -62 -30 -307
-6 -287 -11 -311 -74 -397 -19 -27 -59 -63 -88 -83 -96 -63 -113 -65 -684 -65
l-513 0 0 -365 0 -365 523 0 c565 0 582 1 666 54 52 33 119 110 144 164 20 43
22 69 27 307 l5 260 32 67 c39 84 97 141 181 181 l67 32 378 3 377 3 0 365 0
364 -362 -1 c-254 0 -377 -4 -409 -13z"/>
<path d="M2190 3434 c-109 -29 -189 -98 -239 -203 -25 -55 -26 -62 -32 -311
-5 -233 -7 -260 -28 -312 -31 -79 -98 -150 -179 -190 l-67 -33 -542 -3 -543
-3 0 -365 0 -365 548 3 547 3 57 28 c74 36 139 101 175 175 28 57 28 58 34
312 3 140 11 269 16 285 35 104 124 199 218 234 53 20 76 21 430 21 l375 0 0
370 0 370 -357 -1 c-282 0 -370 -3 -413 -15z"/>
<path d="M2183 2075 c-99 -30 -182 -101 -230 -195 l-28 -55 -6 -260 c-6 -283
-9 -300 -71 -392 -35 -52 -76 -84 -153 -120 l-60 -28 -537 -3 -538 -3 0 -365
0 -365 543 3 542 3 57 27 c76 35 151 107 185 177 28 56 28 57 33 316 l5 260
32 67 c39 84 97 141 181 181 l67 32 1168 3 1167 2 0 365 0 365 -1157 -1 c-928
0 -1166 -3 -1200 -14z"/>
</g>
</svg>
