<?xml version="1.0" encoding="UTF-8"?>
<svg width="10px" height="10px" viewBox="0 0 10 10" version="1.1" xmlns="http://www.w3.org/2000/svg" xmlns:xlink="http://www.w3.org/1999/xlink">
    <title>icons/social/slack/icon-slack-pink</title>
    <g id="icons/social/slack/icon-slack-pink" stroke="none" stroke-width="1" fill="none" fill-rule="evenodd">
        <path d="M6.3825686,9.5718303 C7.54214226,9.22988934 8.40810581,8.81733 8.98045959,8.33415228 C9.55281337,7.85097456 9.88358907,7.23771067 9.97278705,6.49436062 C10.061985,5.75101057 9.93190476,4.79580538 9.58254591,3.62874574 C9.23318707,2.46168609 8.81693008,1.5919664 8.33377428,1.01958666 C7.85061847,0.447206917 7.2373824,0.116416207 6.49406606,0.0272141867 C5.75074973,-0.0619878331 4.79558786,0.0680983324 3.62858115,0.417473023 C2.46157444,0.766847714 1.59189419,1.18312358 1.01954041,1.6663013 C0.447186633,2.14947902 0.116410926,2.76274291 0.0272129524,3.50609296 C-0.0619850215,4.24944301 0.0680952437,5.2046482 0.417454088,6.37170784 C0.766812933,7.53876749 1.18306992,8.40848718 1.66622572,8.98086692 C2.14938153,9.55324666 2.7626176,9.88403737 3.50593394,9.97323939 C4.24925027,10.0624414 5.20812849,9.92863838 6.3825686,9.5718303 Z M4.40221401,7.93964678 C4.28353434,7.8770583 4.21023225,7.79012974 4.18230776,7.67886144 L3.97287323,7.05297664 L3.6796649,7.13642795 C3.40041897,7.23378791 3.23985239,7.28246773 3.19796549,7.28246773 C3.08626718,7.26855908 2.98853096,7.23378791 2.90475715,7.1781536 C2.82098334,7.12251929 2.76513403,7.04602247 2.73720953,6.94866251 C2.69532263,6.80957689 2.70579435,6.680923 2.76862471,6.56270021 C2.83145507,6.44447742 2.9257006,6.36450336 3.05136132,6.3227777 L3.65872144,6.13501226 L3.26079584,4.92496831 L2.96758751,5.00841962 C2.68834158,5.10577958 2.527775,5.1544594 2.4858881,5.1544594 C2.37418979,5.14055075 2.27645357,5.10577958 2.19267976,5.05014527 C2.10890595,4.99451096 2.05305664,4.91801414 2.02513214,4.82065418 C1.98324524,4.69547722 1.99371696,4.57030026 2.05654732,4.4451233 C2.11937768,4.31994633 2.21362322,4.23649503 2.33928393,4.19476937 L2.94664406,4.00700393 L2.73720953,3.38111913 C2.69532263,3.24203351 2.70230367,3.11337963 2.75815298,2.99515684 C2.8140023,2.87693404 2.90824783,2.79695998 3.04088959,2.75523433 C3.17353135,2.71350867 3.29919207,2.72394009 3.41787174,2.78652857 C3.53655141,2.84911705 3.61683454,2.94299977 3.65872144,3.06817673 L3.86815597,3.69406153 L5.12476312,3.276805 L4.9153286,2.65092019 C4.87344169,2.52574323 4.88042274,2.40056627 4.93627205,2.27538931 C4.99212136,2.15021235 5.0863669,2.06676105 5.21900866,2.02503539 C5.35165042,1.98330974 5.47731113,1.99374115 5.5959908,2.05632963 C5.71467048,2.11891811 5.7949536,2.21280083 5.83684051,2.33797779 L6.04627503,2.9638626 L6.65363516,2.75523433 C6.77929587,2.72741733 6.90146591,2.74132567 7.02014558,2.79695998 C7.13882525,2.85259429 7.21910838,2.94299977 7.26099528,3.06817673 C7.30288219,3.19335369 7.29590114,3.31853065 7.24005183,3.44370761 C7.18420252,3.56888457 7.09344766,3.65233588 6.96778695,3.69406153 L6.36042682,3.88182697 L6.75835242,5.09187092 L7.36571255,4.88324266 C7.49137326,4.841517 7.61354329,4.85194842 7.73222297,4.9145369 C7.85090264,4.97712538 7.93118577,5.0710081 7.97307267,5.19618506 C8.01495958,5.32136202 8.00797853,5.44306174 7.95212922,5.56128453 C7.8962799,5.67950732 7.80552505,5.76643555 7.67986433,5.82206986 L7.07250421,6.0098353 L7.26099528,6.6357201 C7.30288219,6.77480572 7.29590114,6.90345961 7.24005183,7.0216824 C7.18420252,7.13990519 7.08995698,7.21987925 6.95731522,7.26160491 C6.82467346,7.30333056 6.69901275,7.29289915 6.58033308,7.23031067 C6.4616534,7.16772219 6.38137028,7.07383947 6.33948337,6.94866251 L6.13004884,6.3227777 L4.89438514,6.74003424 L5.10381967,7.36591904 C5.14570657,7.491096 5.13523485,7.61627296 5.07240449,7.74144992 C5.00957413,7.86662688 4.91183791,7.94660095 4.77919615,7.98137243 C4.6465544,8.01614391 4.52089368,8.00223526 4.40221401,7.93964678 Z M4.5,6 L6,5.48717949 L5.5,4 L4,4.51282051 L4.5,6 Z" id="slack" fill="#C33082" fill-rule="nonzero"></path>
    </g>
</svg>