<?xml version="1.0" encoding="UTF-8"?>
<svg width="10px" height="10px" viewBox="0 0 10 10" version="1.1" xmlns="http://www.w3.org/2000/svg" xmlns:xlink="http://www.w3.org/1999/xlink">
    <title>icons/social/youtube/icon-youtube-white</title>
    <g id="icons/social/youtube/icon-youtube-white" stroke="none" stroke-width="1" fill="none" fill-rule="evenodd">
        <path d="M5,8 L6.66666667,7.98177083 C7.83882784,7.9453125 8.58363868,7.8845487 8.9010989,7.79947917 C9.12087912,7.73871537 9.31013422,7.62934037 9.46886447,7.47135417 C9.62759472,7.31336796 9.73748483,7.1310763 9.7985348,6.92447917 C9.88400498,6.59635417 9.94505495,6.0920138 9.98168498,5.41145833 L9.98168498,5.41145833 L10,4.5 L9.98168498,3.58854167 C9.94505495,2.9201388 9.88400498,2.421875 9.7985348,2.09375 C9.73748483,1.875 9.62759472,1.68663204 9.46886447,1.52864583 C9.31013422,1.37065963 9.12087912,1.26128463 8.9010989,1.20052083 C8.58363868,1.1154513 7.83882784,1.0546875 6.66666667,1.01822917 L6.66666667,1.01822917 L5,1 L3.33333333,1.01822917 C2.16117216,1.0546875 1.41636132,1.1154513 1.0989011,1.20052083 C0.879120879,1.26128463 0.689865783,1.37065963 0.531135531,1.52864583 C0.372405279,1.68663204 0.262515169,1.875 0.201465201,2.09375 C0.115995023,2.421875 0.0549450549,2.9201388 0.0183150183,3.58854167 C0.00610491295,3.92881954 0,4.2326388 0,4.5 L0,4.5 L0.0183150183,5.41145833 C0.0549450549,6.0920138 0.115995023,6.59635417 0.201465201,6.92447917 C0.262515169,7.1310763 0.372405279,7.31336796 0.531135531,7.47135417 C0.689865783,7.62934037 0.879120879,7.73871537 1.0989011,7.79947917 C1.41636132,7.8845487 2.16117216,7.9453125 3.33333333,7.98177083 L3.33333333,7.98177083 L5,8 Z M4,6 L4,3 L7,4.49079755 L4,6 Z" id="youtube" fill="#FFFFFF" fill-rule="nonzero"></path>
    </g>
</svg>