<svg xmlns="http://www.w3.org/2000/svg" xmlns:xlink="http://www.w3.org/1999/xlink"><symbol viewBox="0 0 44 44" id="linkedin" xmlns="http://www.w3.org/2000/svg"><path fill-rule="evenodd" clip-rule="evenodd" d="M32 12H12v20h20V12zm-22-2v24h24V10H10z"/><path d="M29.996 29H30v-5.502c0-2.691-.58-4.764-3.726-4.764-1.512 0-2.527.83-2.942 1.617h-.043v-1.366h-2.983v10.014h3.106v-4.958c0-1.306.247-2.569 1.864-2.569 1.593 0 1.617 1.49 1.617 2.652V29h3.103zM15.248 18.986h3.11V29h-3.11V18.986zM16.801 14c-.994 0-1.801.807-1.801 1.801 0 .995.807 1.818 1.801 1.818.995 0 1.802-.823 1.802-1.818C18.601 14.807 17.794 14 16.8 14z"/></symbol><symbol viewBox="0 0 44 44" id="medium" xmlns="http://www.w3.org/2000/svg"><path fill-rule="evenodd" clip-rule="evenodd" d="M32 12H12v20h20V12zm-22-2v24h24V10H10z"/><path fill-rule="evenodd" clip-rule="evenodd" d="M16.66 18.267a.542.542 0 00-.177-.457l-1.306-1.575V16h4.059l3.137 6.88L25.13 16H29v.235l-1.118 1.072a.327.327 0 00-.124.314v7.873c-.02.12.028.24.124.314l1.092 1.071v.235h-5.49v-.235l1.13-1.098c.111-.11.111-.143.111-.313v-6.364l-3.143 7.985h-.425l-3.66-7.985v5.351a.738.738 0 00.202.614l1.47 1.784v.236H15v-.236l1.47-1.784a.711.711 0 00.19-.614v-6.188z"/></symbol><symbol viewBox="0 0 44 44" id="newsletter" xmlns="http://www.w3.org/2000/svg"><path fill-rule="evenodd" clip-rule="evenodd" d="M32 12H12v20h20V12zm-22-2v24h24V10H10z"/><path d="M25.192 23.302c.033 0 .083-.016.1-.05L28.587 19h-9l3.346 4.302h2.258z"/><path d="M25.637 23.517a.555.555 0 01-.445.214h-1.994l1.698 2.176H29v-6.71l-3.363 4.32zM18.55 19.017H14l.412.527h4.55l-.413-.527zM19.786 20.599h-4.55l.412.527h4.55l-.412-.527zM21.006 22.198h-4.534l.413.527h4.533l-.412-.527zM22.242 23.797h-4.533l.412.527h4.533l-.412-.527zM18.945 25.38l.412.527h4.533l-.412-.528h-4.533z"/></symbol><symbol viewBox="0 0 22 22" id="plus" xmlns="http://www.w3.org/2000/svg"><path d="M21 10h-9V1c0-.6-.4-1-1-1s-1 .4-1 1v9H1c-.6 0-1 .4-1 1s.4 1 1 1h9v9c0 .6.4 1 1 1s1-.4 1-1v-9h9c.6 0 1-.4 1-1s-.4-1-1-1z"/></symbol><symbol viewBox="0 0 44 44" id="slack" xmlns="http://www.w3.org/2000/svg"><path d="M29 22.56l-.699-1.687-2.826 1.17-1.047-2.53 2.825-1.171-.7-1.687-2.823 1.17L22.559 15l-1.687.699 1.17 2.825-2.53 1.048-1.17-2.825-1.686.698 1.17 2.825L15 21.442l.699 1.686 2.826-1.17 1.047 2.53-2.826 1.17.7 1.688 2.825-1.171L21.441 29l1.687-.698-1.17-2.826 2.529-1.048 1.17 2.826 1.687-.699-1.17-2.825L29 22.56zm-7.74 1.229l-1.048-2.53 2.529-1.048 1.047 2.532-2.529 1.046z"/><path fill-rule="evenodd" clip-rule="evenodd" d="M32 12H12v20h20V12zm-22-2v24h24V10H10z"/></symbol><symbol viewBox="0 0 44 44" id="twitter" xmlns="http://www.w3.org/2000/svg"><path d="M19.535 28c5.558 0 8.599-4.618 8.599-8.616 0-.13 0-.26-.006-.39a6.165 6.165 0 001.508-1.57 6.114 6.114 0 01-1.738.478 3.046 3.046 0 001.332-1.678 6.003 6.003 0 01-1.922.733A3.013 3.013 0 0025.104 16a3.029 3.029 0 00-3.023 3.03c0 .236.03.466.077.69a8.576 8.576 0 01-6.23-3.165c-.259.449-.406.969-.406 1.524 0 1.05.536 1.978 1.344 2.521a3.05 3.05 0 01-1.368-.378v.042a3.033 3.033 0 002.423 2.97c-.254.071-.52.107-.796.107-.195 0-.383-.018-.566-.054a3.023 3.023 0 002.823 2.103 6.053 6.053 0 01-4.473 1.258A8.583 8.583 0 0019.535 28z"/><path fill-rule="evenodd" clip-rule="evenodd" d="M32 12H12v20h20V12zm-22-2v24h24V10H10z"/></symbol><symbol viewBox="0 0 44 44" id="youtube" xmlns="http://www.w3.org/2000/svg"><path fill-rule="evenodd" clip-rule="evenodd" d="M32 12H12v20h20V12zm-22-2v24h24V10H10z"/><path d="M18 16l10 6-10 6V16z"/></symbol></svg>