<svg width="42" height="48" viewBox="0 0 42 48" fill="none" xmlns="http://www.w3.org/2000/svg">
<g clip-path="url(#clip0)">
<path d="M18.1849 29.0047C16.0631 29.0047 14.3419 30.7295 14.3419 32.8558V36.4511C14.3419 38.5773 12.6207 40.3022 10.4989 40.3022H0V48.0044H10.5033C12.6251 48.0044 14.3463 46.2796 14.3463 44.1533V40.558C14.3463 38.4318 16.0675 36.7069 18.1893 36.7069H42.0044V29.0047H18.1849Z" fill="#22224A"/>
<path d="M18.1849 14.6325C16.0631 14.6325 14.3419 16.3573 14.3419 18.4836V22.0789C14.3419 24.2051 12.6207 25.93 10.4989 25.93H0V33.6322H10.5033C12.6251 33.6322 14.3463 31.9074 14.3463 29.7811V26.1858C14.3463 24.0596 16.0675 22.3347 18.1893 22.3347H25.2942V14.6325H18.1849Z" fill="#22224A"/>
<path d="M18.1849 0C16.0631 0 14.3419 1.72484 14.3419 3.85112V7.44637C14.3419 9.57265 12.6207 11.2975 10.4989 11.2975H0V18.9997H10.5033C12.6251 18.9997 14.3463 17.2749 14.3463 15.1486V11.5534C14.3463 9.42708 16.0675 7.70223 18.1893 7.70223H25.2942V0H18.1849Z" fill="#22224A"/>
</g>
<defs>
<clipPath id="clip0">
<rect width="42" height="48" fill="white"/>
</clipPath>
</defs>
</svg>
