<?xml version="1.0" encoding="utf-8"?>
<!-- Generator: Adobe Illustrator 25.2.0, SVG Export Plug-In . SVG Version: 6.00 Build 0)  -->
<svg version="1.1" id="Layer_1" xmlns="http://www.w3.org/2000/svg" xmlns:xlink="http://www.w3.org/1999/xlink" x="0px" y="0px"
	 viewBox="0 0 178 72" style="enable-background:new 0 0 178 72;" xml:space="preserve">
<style type="text/css">
	.st0{fill:#FFFFFF;}
</style>
<g id="logos_x2F_logo-mlops-white">
	<g id="Group">
		<g id="logo">
			<path class="st0" d="M63,44v10.5H27.2c-3.6,0-6.6,3-6.6,6.6v5.6c0,2.9-2.3,5.3-5.2,5.3H0V61.5h15.4c3.6,0,6.6-3,6.6-6.6v-5.6
				c0-2.9,2.3-5.3,5.2-5.3H63z M37,22v10.5H26.9c-3.6,0-6.5,3-6.5,6.6v5.6c0,2.9-2.3,5.3-5.2,5.3H0V39.5h15.3c3.6,0,6.5-3,6.5-6.6
				v-5.6c0-2.9,2.3-5.3,5.2-5.3H37z M37,0v10.5H26.9c-3.6,0-6.5,3-6.5,6.6v5.6c0,2.9-2.3,5.3-5.2,5.3H0V17.5h15.3
				c3.6,0,6.5-3,6.5-6.6V5.3c0-2.9,2.3-5.3,5.2-5.3H37z"/>
		</g>
	</g>
	<path id="MLOps" class="st0" d="M74.8,35V24l3.8,11h3.7l3.8-11v11h4.3V17.5h-5.2l-4.7,12.2l-4.8-12.2h-5.2V35H74.8z M103.3,35v-3.3
		h-5.7V17.3h-4.3V35H103.3z M113.7,35.2c1.7,0,3.2-0.4,4.5-1.2c1.4-0.8,2.4-1.9,3.2-3.2c0.8-1.4,1.2-2.9,1.2-4.7s-0.4-3.3-1.2-4.7
		s-1.9-2.5-3.2-3.2s-2.9-1.2-4.5-1.2c-1.7,0-3.2,0.4-4.5,1.2c-1.4,0.8-2.4,1.9-3.2,3.2c-0.8,1.4-1.2,2.9-1.2,4.7s0.4,3.3,1.2,4.7
		c0.8,1.4,1.9,2.5,3.2,3.2C110.5,34.8,112,35.2,113.7,35.2z M113.7,31.2c-1.4,0-2.5-0.5-3.3-1.4c-0.8-0.9-1.2-2.1-1.2-3.7
		c0-1.6,0.4-2.8,1.2-3.7c0.8-0.9,1.9-1.4,3.3-1.4s2.5,0.5,3.3,1.4c0.8,0.9,1.2,2.1,1.2,3.7c0,1.5-0.4,2.8-1.2,3.7
		C116.1,30.7,115,31.2,113.7,31.2z M129.2,41.7v-9.2c0.4,0.8,0.9,1.5,1.7,2s1.7,0.7,2.8,0.7c1.1,0,2.2-0.3,3.1-0.9
		c0.9-0.6,1.6-1.4,2.2-2.5c0.5-1.1,0.8-2.4,0.8-3.8c0-1.5-0.3-2.7-0.8-3.8c-0.5-1.1-1.2-1.9-2.2-2.5c-0.9-0.6-1.9-0.9-3.1-0.9
		c-1.1,0-2,0.2-2.8,0.7s-1.3,1.1-1.7,2l0,0V21H125v20.6H129.2z M132.3,31.4c-0.9,0-1.6-0.3-2.2-0.9c-0.6-0.6-0.9-1.4-0.9-2.5
		c0-1,0.3-1.9,0.9-2.5c0.6-0.6,1.3-0.9,2.2-0.9c0.9,0,1.7,0.3,2.2,0.9s0.8,1.4,0.8,2.5c0,1.1-0.3,1.9-0.8,2.5S133.2,31.4,132.3,31.4
		z M148,35.2c1.1,0,2.1-0.2,2.9-0.5c0.8-0.4,1.4-0.8,1.9-1.5c0.4-0.6,0.7-1.3,0.7-2.1c0-1-0.2-1.8-0.8-2.4c-0.5-0.6-1.1-1-1.8-1.3
		s-1.6-0.5-2.6-0.8c-1-0.2-1.7-0.4-2.2-0.7c-0.5-0.2-0.7-0.5-0.7-1c0-0.4,0.1-0.7,0.4-0.9s0.6-0.3,1.1-0.3c0.6,0,1.1,0.2,1.5,0.5
		c0.4,0.3,0.7,0.8,0.8,1.3l0,0h4c-0.3-1.5-0.9-2.6-2-3.5s-2.5-1.3-4.2-1.3c-1.7,0-3.1,0.4-4,1.2c-1,0.8-1.4,1.8-1.4,3
		c0,1,0.2,1.7,0.7,2.3c0.5,0.6,1.1,1,1.7,1.2s1.5,0.5,2.6,0.7c1,0.2,1.8,0.5,2.2,0.7c0.5,0.2,0.7,0.6,0.7,1c0,0.4-0.1,0.7-0.4,0.9
		c-0.2,0.2-0.6,0.3-1.1,0.3c-0.7,0-1.3-0.2-1.7-0.5s-0.7-0.8-0.8-1.4l0,0h-4.1c0.2,1.5,0.9,2.7,2.1,3.6
		C144.6,34.8,146.1,35.2,148,35.2z"/>
	<path id="community" class="st0" d="M74.6,54.1c1.3,0,2.4-0.4,3.3-1.1s1.4-1.7,1.7-2.9l0,0h-3.3c-0.1,0.4-0.3,0.8-0.6,1
		c-0.3,0.2-0.7,0.4-1.1,0.4c-0.5,0-1-0.2-1.3-0.6s-0.5-1-0.5-1.9c0-0.8,0.2-1.4,0.5-1.9c0.3-0.4,0.8-0.6,1.3-0.6
		c0.5,0,0.8,0.1,1.1,0.4c0.3,0.2,0.5,0.6,0.6,1l0,0h3.3c-0.2-1.2-0.8-2.2-1.7-2.9s-2-1.1-3.3-1.1c-1,0-1.9,0.2-2.6,0.6
		s-1.4,1-1.8,1.8c-0.4,0.8-0.6,1.7-0.6,2.7c0,1,0.2,2,0.6,2.7c0.4,0.8,1,1.4,1.8,1.8C72.7,53.9,73.6,54.1,74.6,54.1z M85.8,54.1
		c1,0,1.9-0.2,2.7-0.6c0.8-0.4,1.4-1,1.9-1.8C90.8,50.9,91,50,91,49c0-1-0.2-2-0.7-2.7c-0.4-0.8-1.1-1.4-1.9-1.8s-1.7-0.6-2.7-0.6
		c-1,0-1.9,0.2-2.7,0.6s-1.4,1-1.9,1.8c-0.4,0.8-0.7,1.7-0.7,2.7c0,1,0.2,2,0.7,2.7c0.5,0.8,1.1,1.4,1.9,1.8
		C83.9,53.9,84.8,54.1,85.8,54.1z M85.8,51.4c-0.6,0-1.1-0.2-1.5-0.6c-0.4-0.4-0.6-1-0.6-1.8s0.2-1.4,0.6-1.8
		c0.4-0.4,0.9-0.6,1.5-0.6c0.6,0,1.1,0.2,1.5,0.6c0.4,0.4,0.6,1,0.6,1.8s-0.2,1.4-0.6,1.8C86.9,51.2,86.4,51.4,85.8,51.4z M95.7,54
		v-5.3c0-0.7,0.2-1.2,0.5-1.6c0.4-0.4,0.8-0.6,1.5-0.6c0.6,0,1,0.2,1.4,0.5c0.3,0.4,0.5,0.8,0.5,1.5l0,0V54h3.1v-5.3
		c0-0.7,0.2-1.2,0.5-1.6c0.4-0.4,0.8-0.6,1.4-0.6c0.6,0,1.1,0.2,1.4,0.5c0.3,0.4,0.5,0.8,0.5,1.5l0,0V54h3.1v-5.8
		c0-1.4-0.4-2.4-1.1-3.2c-0.7-0.8-1.7-1.1-2.9-1.1c-0.7,0-1.4,0.2-2,0.6c-0.6,0.4-1.1,0.9-1.4,1.5c-0.3-0.7-0.7-1.2-1.3-1.5
		s-1.3-0.5-2-0.5c-0.7,0-1.4,0.2-1.9,0.5c-0.5,0.3-1,0.8-1.2,1.3l0,0V44h-3.1v10H95.7z M114.7,54v-5.3c0-0.7,0.2-1.2,0.5-1.6
		c0.4-0.4,0.8-0.6,1.5-0.6c0.6,0,1.1,0.2,1.4,0.5s0.5,0.8,0.5,1.5l0,0V54h3.1v-5.3c0-0.7,0.2-1.2,0.5-1.6c0.4-0.4,0.8-0.6,1.4-0.6
		c0.6,0,1.1,0.2,1.4,0.5c0.3,0.4,0.5,0.8,0.5,1.5l0,0V54h3.1v-5.8c0-1.4-0.4-2.4-1.1-3.2c-0.7-0.8-1.7-1.1-2.9-1.1
		c-0.7,0-1.4,0.2-2,0.6c-0.6,0.4-1.1,0.9-1.4,1.5c-0.3-0.7-0.7-1.2-1.3-1.5s-1.3-0.5-2-0.5c-0.7,0-1.4,0.2-1.9,0.5
		c-0.5,0.3-1,0.8-1.2,1.3l0,0V44h-3.1v10H114.7z M134.3,54.1c0.8,0,1.4-0.2,2-0.5c0.6-0.3,1-0.8,1.3-1.4l0,0V54h3.1V44h-3.1v5.3
		c0,0.7-0.2,1.3-0.5,1.7s-0.9,0.6-1.5,0.6c-0.6,0-1.1-0.2-1.4-0.6c-0.4-0.4-0.5-0.9-0.5-1.6l0,0V44h-3.1v5.8c0,1.3,0.3,2.4,1,3.2
		C132.3,53.7,133.2,54.1,134.3,54.1z M145.9,54v-5.3c0-0.7,0.2-1.3,0.5-1.7c0.4-0.4,0.9-0.6,1.5-0.6c0.6,0,1.1,0.2,1.4,0.6
		c0.4,0.4,0.5,0.9,0.5,1.6l0,0V54h3.1v-5.8c0-1.3-0.3-2.4-1-3.2c-0.7-0.8-1.6-1.2-2.7-1.2c-0.8,0-1.4,0.2-2,0.5
		c-0.6,0.3-1,0.8-1.3,1.4l0,0V44h-3.1v10H145.9z M156.5,42.7c0.6,0,1-0.2,1.3-0.5s0.5-0.7,0.5-1.1c0-0.5-0.2-0.9-0.5-1.2
		c-0.3-0.3-0.8-0.5-1.3-0.5s-1,0.2-1.3,0.5c-0.3,0.3-0.5,0.7-0.5,1.2c0,0.5,0.2,0.8,0.5,1.1S156,42.7,156.5,42.7z M158.1,54V44H155
		v10H158.1z M165.9,54v-2.6h-1c-0.4,0-0.7-0.1-0.8-0.2c-0.2-0.2-0.2-0.4-0.2-0.8l0,0v-3.7h2V44h-2v-2.5h-3.1V44h-1.4v2.6h1.4v3.7
		c0,1.3,0.3,2.3,1,2.9c0.7,0.6,1.6,0.9,2.7,0.9l0,0H165.9z M171.7,58.8L178,44h-3.4l-2.2,6.2l-2.4-6.2h-3.4l4.2,9.7l-2.4,5.2H171.7z
		"/>
</g>
</svg>
