<svg width="44" height="44" viewBox="0 0 44 44" xmlns="http://www.w3.org/2000/svg">
<path fill-rule="evenodd" clip-rule="evenodd" d="M32 12H12V32H32V12ZM10 10V34H34V10H10Z"/>
<path d="M29.9963 29L30 28.9994V23.4981C30 20.8069 29.4206 18.7337 26.2744 18.7337C24.7619 18.7337 23.7469 19.5638 23.3325 20.3506H23.2888V18.985H20.3056V28.9994H23.4119V24.0406C23.4119 22.735 23.6594 21.4725 25.2763 21.4725C26.8694 21.4725 26.8931 22.9625 26.8931 24.1244V29H29.9963Z"/>
<path d="M15.2475 18.9856H18.3575V29H15.2475V18.9856Z"/>
<path d="M16.8013 14C15.8069 14 15 14.8069 15 15.8012C15 16.7956 15.8069 17.6194 16.8013 17.6194C17.7956 17.6194 18.6025 16.7956 18.6025 15.8012C18.6019 14.8069 17.795 14 16.8013 14Z"/>
</svg>
