<svg width="44" height="44" viewBox="0 0 44 44" xmlns="http://www.w3.org/2000/svg">
<path fill-rule="evenodd" clip-rule="evenodd" d="M32 12H12V32H32V12ZM10 10V34H34V10H10Z" fill="black"/>
<path fill-rule="evenodd" clip-rule="evenodd" d="M16.6602 18.2674C16.6777 18.0953 16.6117 17.9256 16.4834 17.8101L15.1767 16.2351V16H19.2356L22.3727 22.8804L25.1307 16H29V16.2351L27.8823 17.3067C27.7861 17.3802 27.7382 17.5009 27.7581 17.6205V25.4943C27.7382 25.6133 27.7861 25.7341 27.8823 25.8076L28.9737 26.8792V27.1143H23.4834V26.8792L24.6145 25.7813C24.7253 25.6705 24.7253 25.6378 24.7253 25.4681V19.1039L21.5817 27.0886H21.1571L17.4967 19.1039V24.4554C17.4663 24.68 17.541 24.9069 17.6991 25.0691L19.1697 26.8529V27.0886H15V26.8529L16.4706 25.0691C16.6281 24.9063 16.6981 24.6783 16.6602 24.4554V18.2674V18.2674Z" fill="black"/>
</svg>
