<?xml version="1.0" encoding="utf-8"?>
<!-- Generator: Adobe Illustrator 25.2.0, SVG Export Plug-In . SVG Version: 6.00 Build 0)  -->
<svg version="1.1" id="Layer_1" xmlns="http://www.w3.org/2000/svg" xmlns:xlink="http://www.w3.org/1999/xlink" x="0px" y="0px"
	 viewBox="0 0 44 44" style="enable-background:new 0 0 44 44;" xml:space="preserve">
<g>
	<path d="M24.1,24.6c0-0.6,0.3-1.3,0.6-2c0.3-0.6,0.6-1.1,0.9-1.7c0.1-0.2,0.2-0.5,0.3-0.7c0.1-0.3-0.1-0.6-0.3-0.7
		c-0.2-0.1-0.5,0-0.7,0.2c-0.2,0.3-0.4,0.6-0.6,0.9c-0.5,1-0.9,2-1.4,3c-0.2,0.5-0.5,0.9-0.9,1.3c-0.3,0.3-0.6,0.3-1,0.2
		c-0.3-0.1-0.5-0.4-0.4-0.7c0.1-0.4,0.2-0.7,0.3-1.1c0.3-0.7,0.6-1.5,0.9-2.2c0.1-0.2,0.1-0.5,0.1-0.7c0-0.3-0.1-0.4-0.4-0.5
		c-0.3-0.1-0.5,0-0.6,0.2c-0.1,0.2-0.2,0.4-0.3,0.7c-0.4,1-0.8,1.9-1.2,2.9c-0.2,0.5-0.3,1-0.4,1.4c-0.1,0.2-0.1,0.4-0.2,0.5
		c-0.2,0.3-0.4,0.5-0.7,0.6c-0.5,0.1-0.9,0.2-1.4,0c-0.7-0.3-1-0.6-1-1.3c0-0.6,0.1-1.2,0.3-1.8c0.1-0.5,0.2-0.9,0.4-1.4
		c0.4-1.1,0.8-2.2,1.2-3.3c0.1-0.3,0.3-0.5,0.5-0.8c0.5-0.6,1.1-0.8,1.9-0.5c0.3,0.1,0.7,0.3,1,0.4c0.5,0.3,0.9,0.3,1.3-0.1
		c0.1-0.1,0.2-0.2,0.4-0.3c0.4-0.3,0.9-0.4,1.3-0.1c0.2,0.1,0.3,0.2,0.5,0.4c0.2,0.2,0.4,0.2,0.7,0.1c0.5-0.2,1.1-0.3,1.7-0.1
		c0.6,0.2,0.9,0.5,0.9,1.1c0,0.6-0.1,1.1-0.3,1.6c-0.3,0.8-0.7,1.6-1,2.3c-0.3,0.6-0.5,1.2-0.6,1.9c-0.1,0.7,0.2,1.1,0.9,1.1
		c0.2,0,0.3,0,0.5,0.1c0.1,0,0.2,0.1,0.3,0.1c0.2,0.1,0.4,0.3,0.4,0.6c0,0.3-0.2,0.4-0.4,0.5c-0.4,0.2-0.8,0.2-1.2,0.2
		c-0.4-0.1-0.8-0.2-1.2-0.4C24.5,26.3,24.1,25.6,24.1,24.6z"/>
	<path d="M31.9,12.1v19.9H12.1V12.1H31.9 M34,10H10v24h24V10L34,10z"/>
</g>
</svg>
