<svg width="44" height="44" viewBox="0 0 44 44"  xmlns="http://www.w3.org/2000/svg">
<path fill-rule="evenodd" clip-rule="evenodd" d="M32 12H12V32H32V12ZM10 10V34H34V10H10Z" fill="black"/>
<path d="M25.1923 23.3022C25.2253 23.3022 25.2747 23.2857 25.2912 23.2527L28.5879 19H19.5879L22.9341 23.3022H25.1923Z" fill="black"/>
<path d="M25.6374 23.5165C25.5385 23.6484 25.3736 23.7308 25.1923 23.7308H23.1978L24.8956 25.9066H29V19.1978L25.6374 23.5165Z" fill="black"/>
<path d="M18.5495 19.0165H14L14.4121 19.544H18.9615L18.5495 19.0165Z" fill="black"/>
<path d="M19.7857 20.5989H15.2363L15.6484 21.1264H20.1978L19.7857 20.5989Z" fill="black"/>
<path d="M21.0055 22.1978H16.4725L16.8846 22.7253H21.4176L21.0055 22.1978Z" fill="black"/>
<path d="M22.2418 23.7967H17.7088L18.1209 24.3242H22.6538L22.2418 23.7967Z" fill="black"/>
<path d="M18.9451 25.3791L19.3571 25.9066H23.8901L23.478 25.3791H18.9451Z" fill="black"/>
</svg>
