<?xml version="1.0" encoding="utf-8"?>
<!-- Generator: Adobe Illustrator 26.0.3, SVG Export Plug-In . SVG Version: 6.00 Build 0)  -->
<svg version="1.1" id="Layer_1" xmlns="http://www.w3.org/2000/svg" xmlns:xlink="http://www.w3.org/1999/xlink" x="0px" y="0px"
	 viewBox="0 0 44 44" style="enable-background:new 0 0 44 44;" xml:space="preserve">
<style type="text/css">
	.st0{fill-rule:evenodd;clip-rule:evenodd;}
</style>
<path class="st0" d="M32,12H12v20h20V12z M10,10v24h24V10H10z"/>
<path d="M23.2,28.3C23,28.9,22.5,29,22,29c-0.5,0-1-0.1-1.2-0.6c-0.2-0.8-0.6-2.7-0.6-3.6c0-1,0.8-1.2,1.7-1.2s1.7,0.2,1.7,1.2
	C23.7,25.6,23.4,27.6,23.2,28.3L23.2,28.3z M20.2,22.9c-0.5-0.5-0.8-1.2-0.8-2c0.1-1.4,1.2-2.5,2.5-2.5c1.5-0.1,2.7,1.1,2.7,2.6
	c0,0.7-0.3,1.4-0.8,1.9c-0.1,0.1-0.1,0.2,0,0.3c0.3,0.2,0.4,0.4,0.6,0.7c0,0.1,0.2,0.1,0.3,0.1c0.8-0.7,1.3-1.8,1.2-3
	c-0.1-2.1-1.7-3.8-3.8-3.8c-2.2-0.1-4,1.7-4,3.9c0,1.1,0.5,2.1,1.2,2.9c0.1,0.1,0.2,0,0.3-0.1c0.1-0.3,0.3-0.5,0.6-0.7
	C20.2,23.1,20.2,23,20.2,22.9L20.2,22.9z M22,15c-3.4,0-6.1,2.7-6.1,6.1c0,2.5,1.4,4.5,3.4,5.5c0.1,0.1,0.3,0,0.2-0.2
	c-0.1-0.4-0.1-0.8-0.1-1.2c0-0.1,0-0.1-0.1-0.1c-1.3-0.9-2.1-2.3-2.1-4c0-2.6,2.2-4.8,4.8-4.8c2.7,0,4.8,2.1,4.8,4.8
	c0,1.7-0.9,3.2-2.2,4c0,0.4-0.1,0.8-0.2,1.3c0,0.1,0.1,0.2,0.2,0.2c2-1,3.4-3,3.4-5.5C28.1,17.8,25.4,15,22,15z M22,19.4
	c-1,0-1.7,0.8-1.7,1.7c0,1,0.8,1.7,1.7,1.7s1.7-0.8,1.7-1.7C23.7,20.2,23,19.4,22,19.4z"/>
</svg>
