<svg width="44" height="44" viewBox="0 0 44 44" xmlns="http://www.w3.org/2000/svg">
<path d="M29 22.5598L28.3011 20.8727L25.4751 22.0433L24.4278 19.5131L27.2527 18.3417L26.5538 16.6548L23.7295 17.8254L22.559 15L20.8722 15.699L22.0427 18.5241L19.5128 19.5717L18.3423 16.7471L16.6558 17.4453L17.826 20.2704L15 21.4415L15.6989 23.1284L18.5249 21.9578L19.5722 24.4883L16.7464 25.6586L17.4453 27.3455L20.2714 26.1749L21.4416 29L23.1283 28.3019L21.9578 25.4759L24.487 24.4283L25.6567 27.2545L27.3442 26.5553L26.174 23.7301L29 22.5598ZM21.2592 23.789L20.2117 21.2589L22.7408 20.2112L23.7883 22.7425L21.2592 23.789Z"/>
<path fill-rule="evenodd" clip-rule="evenodd" d="M32 12H12V32H32V12ZM10 10V34H34V10H10Z"/>
</svg>
