<svg width="44" height="44" viewBox="0 0 44 44" xmlns="http://www.w3.org/2000/svg">
<path d="M19.5353 28C25.0927 28 28.1336 23.3819 28.1336 19.3839C28.1336 19.2539 28.1336 19.124 28.1277 18.9941C28.717 18.5689 29.2297 18.0315 29.6364 17.4232C29.0942 17.6654 28.5107 17.8248 27.8979 17.9016C28.5225 17.5295 28.9999 16.9331 29.2297 16.2244C28.6463 16.5728 27.998 16.8209 27.3085 16.9567C26.7546 16.3661 25.9708 16 25.1044 16C23.4366 16 22.0812 17.3583 22.0812 19.0295C22.0812 19.2657 22.1107 19.4961 22.1578 19.7205C19.6473 19.5965 17.4196 18.3858 15.9286 16.5551C15.6693 17.0039 15.522 17.5236 15.522 18.0787C15.522 19.1299 16.0583 20.0571 16.8657 20.6004C16.3706 20.5827 15.9051 20.4469 15.4984 20.2224C15.4984 20.2343 15.4984 20.2461 15.4984 20.2638C15.4984 21.7283 16.5415 22.9567 17.9206 23.2343C17.6671 23.3051 17.4019 23.3406 17.125 23.3406C16.9305 23.3406 16.7419 23.3228 16.5592 23.2874C16.9423 24.4921 18.062 25.3661 19.3821 25.3898C18.3449 26.2047 17.0425 26.689 15.6281 26.689C15.3864 26.689 15.1448 26.6772 14.9091 26.6476C16.241 27.498 17.8322 28 19.5353 28Z"/>
<path fill-rule="evenodd" clip-rule="evenodd" d="M32 12H12V32H32V12ZM10 10V34H34V10H10Z"/>
</svg>
