<?xml version="1.0" encoding="UTF-8"?>
<svg width="151px" height="151px" viewBox="0 0 151 151" version="1.1" xmlns="http://www.w3.org/2000/svg" xmlns:xlink="http://www.w3.org/1999/xlink">
    <title>icons/play/icon-play-pink</title>
    <g id="icons/play/icon-play-pink" stroke="none" stroke-width="1" fill="none" fill-rule="evenodd">
        <path d="M75.5,0 C117.197499,0 151,33.8025014 151,75.5 C151,117.197499 117.197499,151 75.5,151 C33.8025014,151 0,117.197499 0,75.5 C0,33.8025014 33.8025014,0 75.5,0 Z M64.164557,46.7633856 C62.5077027,46.7633856 61.164557,48.1065314 61.164557,49.7633856 L61.164557,49.7633856 L61.164557,103.148007 C61.164557,103.769227 61.3574073,104.375128 61.7164835,104.882059 C62.674174,106.234092 64.5465754,106.553771 65.898609,105.59608 L65.898609,105.59608 L103.581871,78.9037696 C103.858512,78.7078156 104.099938,78.4663892 104.295892,78.1897482 C105.253583,76.8377146 104.933905,74.9653132 103.581871,74.0076228 L103.581871,74.0076228 L65.898609,47.3153122 C65.3916779,46.956236 64.7857774,46.7633856 64.164557,46.7633856 Z" id="Combined-Shape" fill="#C33082"></path>
    </g>
</svg>