<?xml version="1.0" encoding="UTF-8"?>
<svg width="10px" height="10px" viewBox="0 0 10 10" version="1.1" xmlns="http://www.w3.org/2000/svg" xmlns:xlink="http://www.w3.org/1999/xlink">
    <title>icons/social/twitter/icon-twitter-pink</title>
    <g id="icons/social/twitter/icon-twitter-pink" stroke="none" stroke-width="1" fill="none" fill-rule="evenodd">
        <path d="M3.17305785,9.00001431 C4.35254493,9.00001431 5.39741692,8.69873216 6.30767323,8.09616815 C7.14100647,7.55770661 7.78844246,6.83334754 8.24998093,5.92309123 C8.69869878,5.06411677 8.92305785,4.17309123 8.92305785,3.25001431 C8.92305785,3.13462969 8.91664769,3.05129645 8.90382708,3.00001431 C9.30126308,2.70514261 9.64100647,2.35257831 9.92305785,1.942322 C9.53844246,2.10898876 9.15382708,2.21796293 8.7692117,2.26924507 C9.20510923,2.00001431 9.49998093,1.62821953 9.65382708,1.15386046 C9.25639109,1.38462969 8.826904,1.544886 8.36536554,1.63462969 C8.17305785,1.442322 7.951904,1.28847584 7.701904,1.17309123 C7.451904,1.05770661 7.17946801,1.00001431 6.88459631,1.00001431 C6.52562185,1.00001431 6.19228862,1.08975799 5.88459631,1.26924507 C5.576904,1.44873216 5.33331416,1.69552722 5.15382708,2.00962969 C4.97434,2.32373216 4.88459631,2.66027062 4.88459631,3.01924507 C4.88459631,3.17309123 4.89741692,3.32693738 4.92305785,3.48078354 C4.10254493,3.442322 3.33010923,3.23719369 2.60575016,2.86539892 C1.88139109,2.49360415 1.2692117,1.99360415 0.769211696,1.36539892 C0.576904003,1.68591184 0.480750157,2.0224503 0.480750157,2.37501431 C0.480750157,2.72757831 0.564083393,3.05129645 0.730750157,3.34616815 C0.897416922,3.64103985 1.11536554,3.88462969 1.38459631,4.07693738 C1.06408339,4.06411677 0.762801537,3.97437338 0.480750157,3.80770661 L0.480750157,3.84616815 C0.480750157,4.32052722 0.634596311,4.74360415 0.942288619,5.11539892 C1.24998093,5.48719369 1.63459631,5.72437338 2.09613477,5.82693738 C1.91664769,5.86539892 1.73716032,5.88462969 1.55767323,5.88462969 C1.44228862,5.88462969 1.32049384,5.87821953 1.19228862,5.86539892 C1.32049384,6.26283492 1.55446801,6.59296293 1.8942117,6.85578354 C2.23395538,7.11860415 2.62818615,7.25001431 3.076904,7.25001431 C2.33331416,7.82693738 1.49357077,8.11539892 0.557673234,8.11539892 C0.378186153,8.11539892 0.217929547,8.10898876 0.0769040034,8.09616815 C1.01280154,8.69873216 2.04485262,9.00001431 3.17305785,9.00001431 Z" id="twitter" fill="#C33082" fill-rule="nonzero"></path>
    </g>
</svg>